<svg width="550" height="171" viewBox="0 0 550 171" fill="none" xmlns="http://www.w3.org/2000/svg">
<path d="M120.661 56.2251H133.105V130.7H37.2456C12.7277 130.7 0.376647 112.635 0.00795759 94.2001C-0.360732 75.3969 12.0825 56.2251 37.2456 56.2251C37.2456 75.4891 49.6888 81.1116 49.6888 81.1116H37.2456C28.9501 81.1116 24.8023 87.4715 24.8945 93.647C24.9866 99.8226 29.0422 105.906 37.2456 105.906H108.218V68.6684C108.218 61.8476 113.749 56.2251 120.661 56.2251ZM62.5008 155.587L77.3405 140.655L92.2724 155.587L77.3405 170.519L62.5008 155.587Z" fill="#C1272D"/>
<path d="M156.148 130.7V68.5762L180.942 56.1329V130.7C180.942 149.964 169.789 161.762 156.148 166.094H156.056C154.95 154.389 143.705 143.144 143.705 143.144C149.88 143.144 156.148 138.996 156.148 130.7Z" fill="#C1272D"/>
<path d="M288.231 31.2464L273.299 46.1783L258.367 31.2464L273.299 16.4067L288.231 31.2464ZM305.098 105.906H329.985C329.985 125.17 342.428 130.7 342.428 130.7H280.304C273.391 130.7 267.861 125.17 267.861 118.257C267.861 125.17 262.238 130.7 255.417 130.7H193.293C186.38 130.7 180.85 125.17 180.85 118.257V105.906H242.974V93.4627C242.974 87.195 238.826 81.0194 230.623 81.0194H218.088L205.736 56.1329H342.428C342.428 56.1329 329.985 61.7554 329.985 81.0194H317.541C311.274 81.0194 305.098 85.1672 305.098 93.4627V105.906ZM280.304 105.906V93.4627C280.304 88.8541 280.857 84.7063 282.055 81.0194H265.925C267.215 84.9828 267.861 89.2228 267.861 93.4627V105.906H280.304Z" fill="#C1272D"/>
<path d="M361.784 105.906V93.4627C361.784 68.5762 380.495 56.1329 399.114 56.1329C424 56.1329 436.352 74.8439 436.352 93.4627V118.257C436.352 125.17 430.821 130.7 424 130.7H399.114C392.201 130.7 386.671 125.17 386.671 118.257C386.671 125.17 381.14 130.7 374.227 130.7H342.52C335.607 130.7 330.077 125.17 330.077 118.257V105.906H361.784ZM386.671 105.906H411.557V93.4627C411.557 87.195 407.409 81.0194 399.114 81.0194C392.938 81.0194 386.671 85.1672 386.671 93.4627V105.906Z" fill="#C1272D"/>
<path d="M461.146 105.906V0.0921723C470.363 33.9194 500.964 49.773 500.964 49.773H486.032V130.7H448.795C441.882 130.7 436.352 125.17 436.352 118.349V105.906H461.146Z" fill="#C1272D"/>
<path d="M510.274 130.7V0C519.491 33.9194 550 49.773 550 49.773H535.16V130.7H510.274Z" fill="#C1272D"/>
<path d="M77.4 124.6C68.52 124.6 60.84 121.48 54.36 115.24C48.12 108.76 45 101.08 45 92.2C45 83.08 48.12 75.4 54.36 69.16C60.84 62.92 68.52 59.8 77.4 59.8H95.4V85H81C79.08 85 77.4 85.72 75.96 87.16C74.52 88.6 73.8 90.28 73.8 92.2C73.8 94.12 74.52 95.8 75.96 97.24C77.4 98.68 79.08 99.4 81 99.4H95.4V124.6H77.4Z" fill="#007A33"/>
<path d="M145.863 124.6C136.023 124.6 127.503 121.96 120.303 116.68C113.343 111.16 109.863 103 109.863 92.2C109.863 83.08 113.343 75.4 120.303 69.16C127.503 62.92 136.023 59.8 145.863 59.8C155.703 59.8 164.103 62.92 171.063 69.16C178.263 75.4 181.863 83.08 181.863 92.2C181.863 113.8 169.863 124.6 145.863 124.6ZM145.863 99.4C147.783 99.4 149.463 98.68 150.903 97.24C152.343 95.8 153.063 94.12 153.063 92.2C153.063 90.28 152.343 88.6 150.903 87.16C149.463 85.72 147.783 85 145.863 85C143.943 85 142.263 85.72 140.823 87.16C139.383 88.6 138.663 90.28 138.663 92.2C138.663 94.12 139.383 95.8 140.823 97.24C142.263 98.68 143.943 99.4 145.863 99.4Z" fill="#007A33"/>
<path d="M239.548 59.8L268.348 52.6V139C264.748 132.76 259.588 128.8 252.868 127.12C246.388 125.44 239.548 124.6 232.348 124.6C222.508 124.6 213.988 121.48 206.788 115.24C199.828 109 196.348 101.32 196.348 92.2V59.8L225.148 52.6V92.2C225.148 94.12 225.868 95.8 227.308 97.24C228.748 98.68 230.428 99.4 232.348 99.4C234.268 99.4 235.948 98.68 237.388 97.24C238.828 95.8 239.548 94.12 239.548 92.2V59.8Z" fill="#007A33"/>
<path d="M346.552 71.32L324.952 88.6C323.752 86.2 321.712 85 318.832 85C316.912 85 315.232 85.72 313.792 87.16C312.352 88.6 311.632 90.28 311.632 92.2V124.6L282.832 131.8V45.4C286.432 51.64 291.472 55.6 297.952 57.28C304.672 58.96 311.632 59.8 318.832 59.8C324.352 59.8 329.512 60.88 334.312 63.04C339.112 65.2 343.192 67.96 346.552 71.32Z" fill="#007A33"/>
<path d="M432.861 99.04H483.981L433.221 85.36C435.141 77.92 439.341 71.8 445.821 67C452.301 62.2 459.861 59.8 468.501 59.8C476.901 59.8 484.341 62.2 490.821 67C497.541 71.8 501.741 77.8 503.421 85H451.581L504.141 99.04C501.501 116.08 489.621 124.6 468.501 124.6C459.621 124.6 451.821 122.56 445.101 118.48C438.621 114.16 434.541 107.68 432.861 99.04Z" fill="#007A33"/>
<path d="M390.444 89.6154C390.444 95.2179 392.519 99.3462 396.667 102C401.111 104.654 406 105.981 411.333 105.981C416.37 105.981 421.259 104.949 426 102.885C421.259 110.256 415.63 115.859 409.111 119.692C402.593 123.231 395.926 125 389.111 125C380.222 125 372.222 121.904 365.111 115.712C358.296 109.224 354.889 100.526 354.889 89.6154V54.2308H346V45.8269H354.889V18.8462L390.444 10V27.9135V45.8269H426V54.2308H390.444V89.6154Z" fill="#007A33"/>
<path d="M361.784 105.906V93.4627C361.784 68.5762 380.495 56.1329 399.114 56.1329C424 56.1329 436.352 74.8439 436.352 93.4627V118.257C436.352 125.17 430.821 130.7 424 130.7H399.114C392.201 130.7 386.671 125.17 386.671 118.257C386.671 125.17 381.14 130.7 374.227 130.7H342.52C335.607 130.7 330.077 125.17 330.077 118.257V105.906H361.784ZM386.671 105.906H411.557V93.4627C411.557 87.195 407.409 81.0195 399.114 81.0195C392.938 81.0195 386.671 85.1672 386.671 93.4627V105.906Z" fill="#C1272D"/>
<path d="M461.146 86V0.0921631C470.363 33.9194 500.964 49.773 500.964 49.773H486.032V86H461.146Z" fill="#C1272D"/>
<path d="M156.148 130.7V68.5762L180.942 56.1329V130.7C180.942 149.964 169.789 161.762 156.148 166.094H156.056C154.95 154.389 143.705 143.144 143.705 143.144C149.88 143.144 156.148 138.996 156.148 130.7Z" fill="#C1272D"/>
<path d="M133.105 130.7L108.218 105.906H37.2456C29.0422 105.906 24.9867 99.8226 24.8945 93.647C24.8023 87.4715 28.9501 81.1116 37.2456 81.1116H49.6888C49.6888 81.1116 37.2456 75.4891 37.2456 56.2251C12.0825 56.2251 -0.360732 75.3969 0.0079576 94.2001C0.376647 112.635 12.7277 130.7 37.2456 130.7H133.105Z" fill="#C1272D"/>
<path d="M218.088 81.0195H230.623L235.5 78C235.5 73.7601 237.5 56.1329 237.5 56.1329H205.736L218.088 81.0195Z" fill="#C1272D"/>
</svg>
